<?xml version="1.0" encoding="UTF-8" standalone="no"?>
<svg
   xmlns:dc="http://purl.org/dc/elements/1.1/"
   xmlns:cc="http://creativecommons.org/ns#"
   xmlns:rdf="http://www.w3.org/1999/02/22-rdf-syntax-ns#"
   xmlns:svg="http://www.w3.org/2000/svg"
   xmlns="http://www.w3.org/2000/svg"
   viewBox="0 0 1122.52 485.97467"
   height="485.97467"
   width="1122.52"
   xml:space="preserve"
   id="svg2"
   version="1.1"><metadata
     id="metadata8"><rdf:RDF><cc:Work
         rdf:about=""><dc:format>image/svg+xml</dc:format><dc:type
           rdf:resource="http://purl.org/dc/dcmitype/StillImage" /></cc:Work></rdf:RDF></metadata><defs
     id="defs6"><clipPath
       id="clipPath18"
       clipPathUnits="userSpaceOnUse"><path
         id="path16"
         d="M 0,364.481 H 841.89 V 0 H 0 Z" /></clipPath></defs><g
     transform="matrix(1.3333333,0,0,-1.3333333,0,485.97467)"
     id="g10"><g
       id="g12"><g
         clip-path="url(#clipPath18)"
         id="g14"><g
           transform="translate(420.9448,295.082)"
           id="g20"><path
             id="path22"
             style="fill:#1e93d1;fill-opacity:1;fill-rule:nonzero;stroke:none"
             d="m 0,0 c -9.437,-23.136 -15.135,-38.291 -25.642,-60.74 6.442,-6.828 14.349,-14.743 27.189,-23.723 -13.805,5.681 -23.214,11.344 -30.251,17.262 C -42.151,-95.259 -63.249,-135.185 -106,-212 c 33.595,19.395 59.654,31.34 83.925,35.906 -1.042,4.481 -1.622,9.344 -1.582,14.402 l 0.034,1.043 c 0.533,21.528 11.737,38.106 25.002,36.983 13.266,-1.125 23.584,-19.527 23.051,-41.055 -0.099,-4.048 -0.549,-7.929 -1.346,-11.542 24.002,-4.702 49.784,-16.609 82.916,-35.737 -6.535,12.032 -12.398,22.85 -17.97,33.18 -8.776,6.801 -17.906,15.655 -36.578,25.238 12.834,-3.335 22.047,-7.175 29.209,-11.475 C 24.018,-59.598 19.424,-45.583 0,0" /></g><g
           transform="translate(702.8066,279.6367)"
           id="g24"><path
             id="path26"
             style="fill:#0b9848;fill-opacity:1;fill-rule:nonzero;stroke:none"
             d="m 0,0 -91.828,-91.952 91.445,-91.568 91.828,91.952 z" /></g><g
           transform="translate(702.8066,279.6367)"
           id="g28"><path
             id="path30"
             style="fill:none;stroke:#000000;stroke-width:0.94599998;stroke-linecap:butt;stroke-linejoin:miter;stroke-miterlimit:4;stroke-dasharray:none;stroke-opacity:1"
             d="m 0,0 -91.828,-91.952 91.445,-91.568 91.828,91.952 z" /></g><g
           transform="translate(702.4238,279.2539)"
           id="g32"><path
             id="path34"
             style="fill:#8bca88;fill-opacity:1;fill-rule:nonzero;stroke:none"
             d="m 0,0 v 8.045 l -99.863,-99.997 h 8.418 z" /></g><g
           transform="translate(702.4238,279.2539)"
           id="g36"><path
             id="path38"
             style="fill:none;stroke:#000000;stroke-width:0.94599998;stroke-linecap:butt;stroke-linejoin:miter;stroke-miterlimit:4;stroke-dasharray:none;stroke-opacity:1"
             d="m 0,0 v 8.045 l -99.863,-99.997 h 8.418 z" /></g><g
           transform="translate(702.1943,279.2539)"
           id="g40"><path
             id="path42"
             style="fill:#77c043;fill-opacity:1;fill-rule:nonzero;stroke:none"
             d="M 0,0 V 8.045 L 99.863,-91.952 H 91.445 Z" /></g><g
           transform="translate(702.1943,279.2539)"
           id="g44"><path
             id="path46"
             style="fill:none;stroke:#000000;stroke-width:0.94599998;stroke-linecap:butt;stroke-linejoin:miter;stroke-miterlimit:4;stroke-dasharray:none;stroke-opacity:1"
             d="M 0,0 V 8.045 L 99.863,-91.952 H 91.445 Z" /></g><g
           transform="translate(702.4238,95.5801)"
           id="g48"><path
             id="path50"
             style="fill:#117e3f;fill-opacity:1;fill-rule:nonzero;stroke:none"
             d="m 0,0 v -8.047 l -99.863,99.998 h 8.418 z" /></g><g
           transform="translate(702.4238,95.5801)"
           id="g52"><path
             id="path54"
             style="fill:none;stroke:#000000;stroke-width:0.94599998;stroke-linecap:butt;stroke-linejoin:miter;stroke-miterlimit:4;stroke-dasharray:none;stroke-opacity:1"
             d="m 0,0 v -8.047 l -99.863,99.998 h 8.418 z" /></g><g
           transform="translate(621.0879,277.1436)"
           id="g56"><path
             id="path58"
             style="fill:none;stroke:#000000;stroke-width:18.91399956;stroke-linecap:butt;stroke-linejoin:miter;stroke-miterlimit:4;stroke-dasharray:none;stroke-opacity:1"
             d="m 0,0 h 64.391 l 3.922,-3.928 v -12.055 l -3.112,-3.793 h -7.033 v -59.872 l 60.603,59.872 h -10.01 l -3.517,3.793 V -3.25 l 3.246,2.979 h 65.203 l 3.247,-3.25 V -15.442 L 29.49,-166.884 H 12.715 l -4.856,2.807 v 144.842 h -8.13 l -2.977,2.981 v 12.733 z" /></g><g
           transform="translate(702.1943,95.5801)"
           id="g60"><path
             id="path62"
             style="fill:#1b5e2f;fill-opacity:1;fill-rule:nonzero;stroke:none"
             d="M 0,0 V -8.047 L 99.863,91.951 H 91.445 Z" /></g><g
           transform="translate(702.1943,95.5801)"
           id="g64"><path
             id="path66"
             style="fill:none;stroke:#000000;stroke-width:0.94599998;stroke-linecap:butt;stroke-linejoin:miter;stroke-miterlimit:4;stroke-dasharray:none;stroke-opacity:1"
             d="M 0,0 V -8.047 L 99.863,91.951 H 91.445 Z" /></g><g
           transform="translate(702.1543,288.041)"
           id="g68"><path
             id="path70"
             style="fill:none;stroke:#000000;stroke-width:5.67399979;stroke-linecap:butt;stroke-linejoin:miter;stroke-miterlimit:4;stroke-dasharray:none;stroke-opacity:1"
             d="M 0,0 -100.238,-100.374 -0.417,-200.33 99.821,-99.956 Z" /></g><g
           transform="translate(686.1621,271.0161)"
           id="g72"><path
             id="path74"
             style="fill:#ffffff;fill-opacity:1;fill-rule:nonzero;stroke:none"
             d="m 0,0 3.636,1.916 -3.731,3.735 h -64.95 l -3.299,-3.304 v -12.5 l 3.658,-3.664 1.746,3.664 -2.296,2.299 v 8.812 l 1.722,1.532 h 61.985 z" /></g><g
           transform="translate(686.1621,271.0161)"
           id="g76"><path
             id="path78"
             style="fill:none;stroke:#000000;stroke-width:0.94599998;stroke-linecap:butt;stroke-linejoin:miter;stroke-miterlimit:4;stroke-dasharray:none;stroke-opacity:1"
             d="m 0,0 3.636,1.916 -3.731,3.735 h -64.95 l -3.299,-3.304 v -12.5 l 3.658,-3.664 1.746,3.664 -2.296,2.299 v 8.812 l 1.722,1.532 h 61.985 z" /></g><g
           transform="translate(732.082,273.8926)"
           id="g80"><path
             id="path82"
             style="fill:none;stroke:#000000;stroke-width:1;stroke-linecap:butt;stroke-linejoin:miter;stroke-miterlimit:4;stroke-dasharray:none;stroke-opacity:1"
             d="m 0,0 -2.293,-2.296 v -8.432 l 2.008,-2.011 h 10.613 v -8.147 l -70.205,-71.255 v 79.302 h 11.666 l 2.395,2.396 v 8.532 l -2.209,1.71 h -61.402 l -2.009,-2.012 v -8.716 l 2.042,-2.045 h 10.681 v -146.03 l 2.009,-2.012 h 12.136 L 62.555,-9.001 v 6.705 L 60.262,0 Z" /></g><g
           transform="translate(633.2617,261.1602)"
           id="g84"><path
             id="path86"
             style="fill:#ffffff;fill-opacity:1;fill-rule:nonzero;stroke:none"
             d="m 0,0 v -146.295 l 1.895,-2.166 -1.487,-2.836 -4.195,4.19 V -3.792 Z" /></g><g
           transform="translate(633.2617,261.1602)"
           id="g88"><path
             id="path90"
             style="fill:none;stroke:#000000;stroke-width:0.94599998;stroke-linecap:butt;stroke-linejoin:miter;stroke-miterlimit:4;stroke-dasharray:none;stroke-opacity:1"
             d="m 0,0 v -146.295 l 1.895,-2.166 -1.487,-2.836 -4.195,4.19 V -3.792 Z" /></g><g
           transform="translate(622.7686,261.1602)"
           id="g92"><path
             id="path94"
             style="fill:#808181;fill-opacity:1;fill-rule:nonzero;stroke:none"
             d="M 0,0 -1.081,-3.522 H 6.764 L 11.093,0 Z" /></g><g
           transform="translate(622.7686,261.1602)"
           id="g96"><path
             id="path98"
             style="fill:none;stroke:#000000;stroke-width:0.94599998;stroke-linecap:butt;stroke-linejoin:miter;stroke-miterlimit:4;stroke-dasharray:none;stroke-opacity:1"
             d="M 0,0 -1.081,-3.522 H 6.764 L 11.093,0 Z" /></g><g
           transform="translate(678.4512,196.9399)"
           id="g100"><path
             id="path102"
             style="fill:#ffffff;fill-opacity:1;fill-rule:nonzero;stroke:none"
             d="m 0,0 -6.254,-15.194 70.594,70.88 v 8.429 z m 52.096,60.265 1.72,3.544 -2.486,2.298 v 7.854 l 2.87,2.874 h 59.879 l 2.296,-3.065 3.252,2.299 -3.348,3.352 H 51.904 L 48.699,76.212 V 63.617 l 3.325,-3.137" /></g><g
           transform="translate(678.4512,196.9399)"
           id="g104"><path
             id="path106"
             style="fill:none;stroke:#000000;stroke-width:0.94599998;stroke-linecap:butt;stroke-linejoin:miter;stroke-miterlimit:4;stroke-dasharray:none;stroke-opacity:1"
             d="m 0,0 -6.254,-15.194 70.594,70.88 v 8.429 z m 52.096,60.265 1.72,3.544 -2.486,2.298 v 7.854 l 2.87,2.874 h 59.879 l 2.296,-3.065 3.252,2.299 -3.348,3.352 H 51.904 L 48.699,76.212 V 63.617 l 3.325,-3.137" /></g><g
           transform="translate(686.0195,271.4546)"
           id="g108"><path
             id="path110"
             style="fill:#808181;fill-opacity:1;fill-rule:nonzero;stroke:none"
             d="m 0,0 3.111,2.032 v -12.326 l -3.584,-3.59 H -7.44 v -60.753 l -6.359,-15.037 v 79.38 H -2.164 L 0,-8.534 Z" /></g><g
           transform="translate(686.0195,271.4546)"
           id="g112"><path
             id="path114"
             style="fill:none;stroke:#000000;stroke-width:0.94599998;stroke-linecap:butt;stroke-linejoin:miter;stroke-miterlimit:4;stroke-dasharray:none;stroke-opacity:1"
             d="m 0,0 3.111,2.032 v -12.326 l -3.584,-3.59 H -7.44 v -60.753 l -6.359,-15.037 v 79.38 H -2.164 L 0,-8.534 Z" /></g><g
           transform="translate(732.082,273.8926)"
           id="g116"><path
             id="path118"
             style="fill:#cdcccc;fill-opacity:1;fill-rule:nonzero;stroke:none"
             d="m 0,0 -2.293,-2.296 v -8.432 l 2.008,-2.011 h 10.613 v -8.147 l -70.205,-71.255 v 79.302 h 11.666 l 2.395,2.396 v 8.532 l -2.209,1.71 h -61.402 l -2.009,-2.012 v -8.716 l 2.042,-2.045 h 10.681 v -146.03 l 2.009,-2.012 h 12.136 L 62.555,-9.001 v 6.705 L 60.262,0 Z" /></g><g
           transform="translate(732.082,273.8926)"
           id="g120"><path
             id="path122"
             style="fill:none;stroke:#000000;stroke-width:1;stroke-linecap:butt;stroke-linejoin:miter;stroke-miterlimit:4;stroke-dasharray:none;stroke-opacity:1"
             d="m 0,0 -2.293,-2.296 v -8.432 l 2.008,-2.011 h 10.613 v -8.147 l -70.205,-71.255 v 79.302 h 11.666 l 2.395,2.396 v 8.532 l -2.209,1.71 h -61.402 l -2.009,-2.012 v -8.716 l 2.042,-2.045 h 10.681 v -146.03 l 2.009,-2.012 h 12.136 L 62.555,-9.001 v 6.705 L 60.262,0 Z" /></g><g
           transform="translate(794.8262,271.3994)"
           id="g124"><path
             id="path126"
             style="fill:#808181;fill-opacity:1;fill-rule:nonzero;stroke:none"
             d="m 0,0 3.268,1.889 v -11.85 l -148.205,-151.647 h -15.735 l 1.503,2.992 h 12.052 L -0.19,-6.705 Z" /></g><g
           transform="translate(794.8262,271.3994)"
           id="g128"><path
             id="path130"
             style="fill:none;stroke:#000000;stroke-width:0.94599998;stroke-linecap:butt;stroke-linejoin:miter;stroke-miterlimit:4;stroke-dasharray:none;stroke-opacity:1"
             d="m 0,0 3.268,1.889 v -11.85 l -148.205,-151.647 h -15.735 l 1.503,2.992 h 12.052 L -0.19,-6.705 Z" /></g><g
           transform="translate(742.4971,260.957)"
           id="g132"><path
             id="path134"
             style="fill:#808181;fill-opacity:1;fill-rule:nonzero;stroke:none"
             d="m 0,0 -3.314,-3.455 h -8.659 L -9.942,0 Z" /></g><g
           transform="translate(742.4971,260.957)"
           id="g136"><path
             id="path138"
             style="fill:none;stroke:#000000;stroke-width:0.94599998;stroke-linecap:butt;stroke-linejoin:miter;stroke-miterlimit:4;stroke-dasharray:none;stroke-opacity:1"
             d="m 0,0 -3.314,-3.455 h -8.659 L -9.942,0 Z" /></g><g
           transform="translate(750.4453,152.8301)"
           id="g140"><path
             id="path142"
             style="fill:#cdcccc;fill-opacity:1;fill-rule:nonzero;stroke:none"
             d="m 0,0 c -0.144,-0.031 -0.273,-0.105 -0.369,-0.219 l -3.883,-4.39 h -6.177 l -4.118,4.273 c -0.123,0.127 -0.292,0.199 -0.469,0.201 h -14.747 c -0.277,0 -0.525,-0.176 -0.62,-0.435 l -1.355,-4.057 c -0.116,-0.348 0.07,-0.721 0.416,-0.836 0.064,-0.023 0.135,-0.035 0.203,-0.035 h 3.95 l -12.287,-36.258 c -0.114,-0.346 0.071,-0.719 0.416,-0.836 0.066,-0.023 0.135,-0.033 0.203,-0.033 h 15.703 c 0.278,0 0.525,0.172 0.619,0.436 l 1.205,3.535 c 0.117,0.345 -0.07,0.722 -0.417,0.838 -0.065,0.023 -0.132,0.033 -0.203,0.035 h -2.745 l 7.834,24.689 h 14.179 l -8.939,-28.679 c -0.107,-0.35 0.089,-0.719 0.438,-0.827 0.064,-0.021 0.132,-0.027 0.199,-0.027 H 4.184 c 0.263,0.002 0.5,0.158 0.603,0.402 l 1.356,3.25 c 0.135,0.34 -0.032,0.725 -0.371,0.858 -0.074,0.031 -0.152,0.047 -0.232,0.047 H 2.795 l 7.968,25.111 h 13.493 l -9.073,-28.814 c -0.108,-0.35 0.088,-0.719 0.437,-0.827 0.066,-0.021 0.132,-0.027 0.198,-0.027 h 16.639 c 0.273,-0.002 0.52,0.162 0.62,0.416 l 1.356,3.539 c 0.125,0.344 -0.051,0.723 -0.394,0.848 -0.072,0.027 -0.148,0.041 -0.226,0.041 H 30.517 L 40.543,-5.18 c 0.067,0.205 0.029,0.43 -0.101,0.604 l -3.114,4.189 c -0.129,0.164 -0.327,0.256 -0.534,0.252 H 24.892 c -0.183,0.002 -0.359,-0.068 -0.487,-0.201 l -3.749,-4.121 h -6.561 l -3.884,4.256 C 10.084,-0.07 9.908,0.002 9.726,0 H 0.133 C 0.089,0.004 0.044,0.004 0,0 m -59.393,0.135 c -0.246,-0.055 -0.441,-0.242 -0.502,-0.487 l -1.087,-4.326 c -0.088,-0.353 0.127,-0.713 0.48,-0.801 0.051,-0.013 0.104,-0.019 0.156,-0.019 h 5.172 l -12.822,-36.66 c -0.117,-0.346 0.07,-0.721 0.416,-0.836 0.066,-0.024 0.135,-0.033 0.203,-0.033 h 18.664 c 0.289,-0.006 0.546,0.177 0.637,0.453 l 1.222,3.937 c 0.107,0.35 -0.09,0.717 -0.439,0.826 -0.063,0.018 -0.131,0.03 -0.197,0.03 h -4.219 l 12.689,37.043 c 0.115,0.345 -0.071,0.72 -0.417,0.838 -0.065,0.021 -0.133,0.033 -0.203,0.035 h -19.618 c -0.045,0.004 -0.09,0.004 -0.135,0 m 16.104,22.493 c -0.111,-0.023 -0.216,-0.075 -0.302,-0.152 l -2.846,-2.447 c -0.084,-0.075 -0.147,-0.174 -0.183,-0.284 l -2.845,-7.979 c -0.087,-0.239 -0.028,-0.506 0.151,-0.688 L -47.14,8.9 c 0.127,-0.123 0.295,-0.187 0.47,-0.185 h 8.788 c 0.175,-0.002 0.343,0.062 0.468,0.185 l 2.294,2.313 c 0.079,0.08 0.137,0.178 0.167,0.285 l 2.444,8.399 c 0.069,0.231 0.004,0.482 -0.168,0.653 l -1.889,1.895 c -0.127,0.118 -0.296,0.186 -0.47,0.183 h -8.119 c -0.044,0.005 -0.089,0.005 -0.134,0" /></g><g
           transform="translate(750.4453,152.8301)"
           id="g144"><path
             id="path146"
             style="fill:none;stroke:#000000;stroke-width:8;stroke-linecap:butt;stroke-linejoin:miter;stroke-miterlimit:10;stroke-dasharray:none;stroke-opacity:1"
             d="m 0,0 c -0.144,-0.031 -0.273,-0.105 -0.369,-0.219 l -3.883,-4.39 h -6.177 l -4.118,4.273 c -0.123,0.127 -0.292,0.199 -0.469,0.201 h -14.747 c -0.277,0 -0.525,-0.176 -0.62,-0.435 l -1.355,-4.057 c -0.116,-0.348 0.07,-0.721 0.416,-0.836 0.064,-0.023 0.135,-0.035 0.203,-0.035 h 3.95 l -12.287,-36.258 c -0.114,-0.346 0.071,-0.719 0.416,-0.836 0.066,-0.023 0.135,-0.033 0.203,-0.033 h 15.703 c 0.278,0 0.525,0.172 0.619,0.436 l 1.205,3.535 c 0.117,0.345 -0.07,0.722 -0.417,0.838 -0.065,0.023 -0.132,0.033 -0.203,0.035 h -2.745 l 7.834,24.689 h 14.179 l -8.939,-28.679 c -0.107,-0.35 0.089,-0.719 0.438,-0.827 0.064,-0.021 0.132,-0.027 0.199,-0.027 H 4.184 c 0.263,0.002 0.5,0.158 0.603,0.402 l 1.356,3.25 c 0.135,0.34 -0.032,0.725 -0.371,0.858 -0.074,0.031 -0.152,0.047 -0.232,0.047 H 2.795 l 7.968,25.111 h 13.493 l -9.073,-28.814 c -0.108,-0.35 0.088,-0.719 0.437,-0.827 0.066,-0.021 0.132,-0.027 0.198,-0.027 h 16.639 c 0.273,-0.002 0.52,0.162 0.62,0.416 l 1.356,3.539 c 0.125,0.344 -0.051,0.723 -0.394,0.848 -0.072,0.027 -0.148,0.041 -0.226,0.041 H 30.517 L 40.543,-5.18 c 0.067,0.205 0.029,0.43 -0.101,0.604 l -3.114,4.189 c -0.129,0.164 -0.327,0.256 -0.534,0.252 H 24.892 c -0.183,0.002 -0.359,-0.068 -0.487,-0.201 l -3.749,-4.121 h -6.561 l -3.884,4.256 C 10.084,-0.07 9.908,0.002 9.726,0 H 0.133 C 0.089,0.004 0.044,0.004 0,0 Z m -59.393,0.135 c -0.246,-0.055 -0.441,-0.242 -0.502,-0.487 l -1.087,-4.326 c -0.088,-0.353 0.127,-0.713 0.48,-0.801 0.051,-0.013 0.104,-0.019 0.156,-0.019 h 5.172 l -12.822,-36.66 c -0.117,-0.346 0.07,-0.721 0.416,-0.836 0.066,-0.024 0.135,-0.033 0.203,-0.033 h 18.664 c 0.289,-0.006 0.546,0.177 0.637,0.453 l 1.222,3.937 c 0.107,0.35 -0.09,0.717 -0.439,0.826 -0.063,0.018 -0.131,0.03 -0.197,0.03 h -4.219 l 12.689,37.043 c 0.115,0.345 -0.071,0.72 -0.417,0.838 -0.065,0.021 -0.133,0.033 -0.203,0.035 h -19.618 c -0.045,0.004 -0.09,0.004 -0.135,0 z m 16.104,22.493 c -0.111,-0.023 -0.216,-0.075 -0.302,-0.152 l -2.846,-2.447 c -0.084,-0.075 -0.147,-0.174 -0.183,-0.284 l -2.845,-7.979 c -0.087,-0.239 -0.028,-0.506 0.151,-0.688 L -47.14,8.9 c 0.127,-0.123 0.295,-0.187 0.47,-0.185 h 8.788 c 0.175,-0.002 0.343,0.062 0.468,0.185 l 2.294,2.313 c 0.079,0.08 0.137,0.178 0.167,0.285 l 2.444,8.399 c 0.069,0.231 0.004,0.482 -0.168,0.653 l -1.889,1.895 c -0.127,0.118 -0.296,0.186 -0.47,0.183 h -8.119 c -0.044,0.005 -0.089,0.005 -0.134,0 z" /></g><g
           transform="translate(750.5781,152.1777)"
           id="g148"><path
             id="path150"
             style="fill:#cdcccc;fill-opacity:1;fill-rule:nonzero;stroke:none"
             d="m 0,0 -4.067,-4.611 h -6.763 l -4.318,4.474 h -14.748 l -1.356,-4.056 h 4.871 L -38.97,-41.318 h 15.703 l 1.205,3.535 h -3.65 l 8.253,25.996 h 15.568 l -9.206,-29.531 H 4.051 l 1.356,3.25 H 1.758 l 8.388,26.416 h 14.88 l -9.34,-29.666 h 16.638 l 1.357,3.535 h -4.202 l 10.294,33.457 -3.112,4.189 H 24.759 L 20.824,-4.461 H 13.66 L 9.593,0 Z m -59.391,0.131 -1.088,-4.324 h 6.092 l -13.123,-37.53 h 18.664 l 1.223,3.94 h -5.139 l 12.99,37.914 z m 16.103,22.495 -2.846,-2.447 -2.845,-7.978 2.176,-2.18 h 8.788 l 2.293,2.313 2.445,8.398 -1.892,1.894 z" /></g><g
           transform="translate(750.5781,152.1777)"
           id="g152"><path
             id="path154"
             style="fill:none;stroke:#000000;stroke-width:1;stroke-linecap:butt;stroke-linejoin:miter;stroke-miterlimit:10;stroke-dasharray:none;stroke-opacity:1"
             d="m 0,0 -4.067,-4.611 h -6.763 l -4.318,4.474 h -14.748 l -1.356,-4.056 h 4.871 L -38.97,-41.318 h 15.703 l 1.205,3.535 h -3.65 l 8.253,25.996 h 15.568 l -9.206,-29.531 H 4.051 l 1.356,3.25 H 1.758 l 8.388,26.416 h 14.88 l -9.34,-29.666 h 16.638 l 1.357,3.535 h -4.202 l 10.294,33.457 -3.112,4.189 H 24.759 L 20.824,-4.461 H 13.66 L 9.593,0 Z m -59.391,0.131 -1.088,-4.324 h 6.092 l -13.123,-37.53 h 18.664 l 1.223,3.94 h -5.139 l 12.99,37.914 z m 16.103,22.495 -2.846,-2.447 -2.845,-7.978 2.176,-2.18 h 8.788 l 2.293,2.313 2.445,8.398 -1.892,1.894 z" /></g><g
           transform="translate(223.7373,193.1719)"
           id="g156"><path
             id="path158"
             style="fill:#f04c37;fill-opacity:1;fill-rule:evenodd;stroke:none"
             d="m 0,0 c -0.956,-20.802 -10.13,-36.662 -28.651,-46.62 -9.415,-5.062 -19.582,-6.782 -30.273,-5.473 -12.267,1.502 -22.682,6.67 -31.397,15.347 -9.768,9.725 -19.508,19.479 -29.242,29.24 -5.461,5.477 -3.907,14.036 3.105,17.268 3.713,1.713 8.127,1.069 11.207,-1.953 7.819,-7.675 15.507,-15.484 23.319,-23.166 4.081,-4.015 7.744,-8.507 12.759,-11.491 5.871,-3.491 12.174,-5.149 19.021,-4.487 10.591,1.023 18.818,6.002 24.379,15.056 3.911,6.367 5.44,13.327 4.305,20.837 -1.168,7.726 -4.835,13.973 -10.379,19.389 -9.504,9.283 -18.842,18.736 -28.212,28.157 -4.119,4.141 -4.266,10.482 -0.447,14.652 4.023,4.392 10.816,4.632 15.188,0.359 6.281,-6.138 12.472,-12.369 18.652,-18.61 4.877,-4.923 9.835,-9.78 14.471,-14.924 4.62,-5.127 7.643,-11.233 9.702,-17.828 C -0.893,10.631 -0.025,5.418 0,0" /></g><g
           transform="translate(141.2783,233.5391)"
           id="g160"><path
             id="path162"
             style="fill:#f04c37;fill-opacity:1;fill-rule:evenodd;stroke:none"
             d="m 0,0 c 3.047,0.123 5.621,-1.229 7.786,-3.391 9.759,-9.747 19.492,-19.523 29.225,-29.297 3.578,-3.593 4.22,-8.473 1.739,-12.916 -2.179,-3.903 -7.125,-5.975 -11.739,-4.815 -2.4,0.602 -4.232,2.157 -5.948,3.878 -9.153,9.178 -18.311,18.351 -27.496,27.495 -2.431,2.421 -4.203,5.064 -4.146,8.688 C -10.487,-4.623 -5.885,-0.006 0,0" /></g><g
           transform="translate(129.4507,245.4014)"
           id="g164"><path
             id="path166"
             style="fill:#f04c37;fill-opacity:1;fill-rule:evenodd;stroke:none"
             d="m 0,0 c 0.001,-5.626 -4.934,-10.691 -10.557,-10.564 -5.941,0.135 -10.405,4.525 -10.539,10.399 -0.134,5.855 4.608,10.633 10.347,10.664 C -4.854,10.531 -0.001,5.791 0,0" /></g><g
           transform="translate(148.665,264.7788)"
           id="g168"><path
             id="path170"
             style="fill:#f04c37;fill-opacity:1;fill-rule:evenodd;stroke:none"
             d="m 0,0 c -5.851,-0.321 -10.635,4.919 -10.551,10.54 0.083,5.62 4.894,10.49 10.508,10.416 C 5.78,20.878 10.426,16.187 10.481,10.438 10.533,4.988 5.778,-0.341 0,0" /></g><g
           transform="translate(99.4766,215.6499)"
           id="g172"><path
             id="path174"
             style="fill:#f04c37;fill-opacity:1;fill-rule:evenodd;stroke:none"
             d="m 0,0 c 0.063,-5.783 -4.394,-10.334 -10.105,-10.512 -5.816,-0.18 -10.709,4.41 -10.86,10.329 -0.146,5.762 4.641,10.493 10.378,10.681 C -5.351,10.668 0.309,6.053 0,0" /></g><g
           transform="translate(175.748,93.7275)"
           id="g176"><path
             id="path178"
             style="fill:#f04b35;fill-opacity:1;fill-rule:evenodd;stroke:none"
             d="m 0,0 c -0.551,0.134 -1.095,0.325 -1.653,0.394 -1.286,0.157 -2.579,0.255 -3.869,0.371 0.059,0.393 0.134,0.793 0.171,1.195 0.109,1.15 -0.216,2.808 0.409,3.324 0.763,0.631 2.318,0.396 3.529,0.373 C -0.141,5.635 0.341,6.181 0.334,7.396 0.311,11.236 0.381,15.08 0.297,18.92 0.222,22.304 0.153,22.227 3.442,22.277 5,22.3 5.439,21.787 5.429,20.243 5.371,11.893 5.421,3.54 5.433,-4.812 l 0.008,0.007 C 4.262,-4.806 3.082,-4.764 1.906,-4.821 0.787,-4.876 0.35,-4.407 0.326,-3.299 0.302,-2.197 0.115,-1.1 0,0" /></g><g
           transform="translate(143.5742,93.8516)"
           id="g180"><path
             id="path182"
             style="fill:#f04c37;fill-opacity:1;fill-rule:evenodd;stroke:none"
             d="m 0,0 v -4.983 h -16.509 v 4.89 C -11.006,-0.062 -5.503,-0.031 0,0" /></g><g
           transform="translate(127.042,111.0742)"
           id="g184"><path
             id="path186"
             style="fill:#f04d38;fill-opacity:1;fill-rule:evenodd;stroke:none"
             d="M 0,0 C 0.034,1.623 0.067,3.244 0.102,4.867 4.542,4.857 8.982,4.846 13.422,4.839 16.009,4.834 16.01,4.837 16.015,2.323 16.016,1.557 16.011,0.792 16.009,0.025 10.698,0.028 5.386,0.032 0.075,0.036 Z" /></g><g
           transform="translate(132.6543,100.0137)"
           id="g188"><path
             id="path190"
             style="fill:#f04c36;fill-opacity:1;fill-rule:evenodd;stroke:none"
             d="M 0,0 C -0.007,1.618 -0.013,3.236 -0.02,4.854 3.455,4.856 6.93,4.86 10.405,4.864 10.452,3.893 10.458,2.917 10.556,1.95 10.693,0.589 10.2,-0.033 8.76,-0.005 5.841,0.051 2.92,0.004 0,0" /></g><g
           transform="translate(121.4077,105.208)"
           id="g192"><path
             id="path194"
             style="fill:#f04c36;fill-opacity:1;fill-rule:evenodd;stroke:none"
             d="M 0,0 C 0.141,1.913 0.274,3.705 0.404,5.496" /></g><g
           transform="translate(126.75,94.1582)"
           id="g196"><path
             id="path198"
             style="fill:#f04b36;fill-opacity:1;fill-rule:evenodd;stroke:none"
             d="M 0,0 H -5.135 V 5.362 H 0.259 V 0.286 C 0.165,0.187 0.07,0.086 -0.024,-0.015 Z" /></g><g
           transform="translate(148.9136,105.4873)"
           id="g200"><path
             id="path202"
             style="fill:#f04b36;fill-opacity:1;fill-rule:evenodd;stroke:none"
             d="M 0,0 -4.941,-0.27 -5.24,0.009 c 0.013,1.648 0.026,3.295 0.039,4.942 1.176,-0.015 2.35,-0.054 3.525,-0.042 1.162,0.012 1.677,-0.553 1.664,-1.69 C -0.025,2.146 -0.005,1.073 0,0" /></g><g
           transform="translate(148.5205,98.0664)"
           id="g204"><path
             id="path206"
             style="fill:#d94f39;fill-opacity:1;fill-rule:evenodd;stroke:none"
             d="M 0,0 C -0.057,0.452 -0.713,1.107 -1.17,1.176 -2.358,1.354 -3.587,1.26 -4.8,1.274" /></g><g
           transform="translate(158.9766,88.9775)"
           id="g208"><path
             id="path210"
             style="fill:#f04d37;fill-opacity:1;fill-rule:evenodd;stroke:none"
             d="m 0,0 c -1.597,-0.008 -3.194,-0.017 -4.792,-0.025 -0.035,2.299 -0.105,4.6 -0.1,6.9 0.019,6.699 0.067,13.4 0.103,20.1 1.077,0.005 2.156,-0.038 3.228,0.032 1.19,0.077 1.624,-0.367 1.61,-1.588 C -0.002,21.062 0.092,16.703 0.013,12.348 -0.015,10.859 0.485,10.385 1.947,10.389 5.551,10.398 5.551,10.342 5.57,6.746 5.573,6.336 5.575,5.926 5.577,5.516 4.21,5.49 2.844,5.453 1.478,5.444 0.471,5.437 0.003,4.981 0.024,3.951 0.051,2.635 0.011,1.317 0,0" /></g><g
           transform="translate(170.1196,104.9072)"
           id="g212"><path
             id="path214"
             style="fill:#f04c37;fill-opacity:1;fill-rule:evenodd;stroke:none"
             d="m 0,0 c -0.018,-1.277 0.049,-2.568 -0.104,-3.83 -0.049,-0.408 -0.615,-0.903 -1.056,-1.072 -0.493,-0.189 -1.11,-0.059 -1.673,-0.057 -2.196,0.005 -2.196,0.007 -2.254,2.219 -0.072,2.741 -0.04,2.779 2.634,2.777 0.819,0 1.637,-0.028 2.456,-0.043 z" /></g><g
           transform="translate(154.1875,115.9521)"
           id="g216"><path
             id="path218"
             style="fill:#bc584e;fill-opacity:1;fill-rule:evenodd;stroke:none"
             d="M 0,0 C -0.036,-6.699 -0.084,-13.4 -0.103,-20.1" /></g><g
           transform="translate(100.5601,110.1396)"
           id="g220"><path
             id="path222"
             style="fill:#f04d38;fill-opacity:1;fill-rule:evenodd;stroke:none"
             d="m 0,0 c -0.577,0.284 -1.144,0.793 -1.729,0.813 -2.506,0.091 -5.019,0.085 -7.525,0.021 -1.331,-0.035 -1.807,0.463 -1.78,1.797 0.076,3.738 -0.183,3.161 3.092,3.175 7.27,0.029 14.541,0.01 21.812,0.006 2.141,0 2.18,-0.049 2.171,-2.127 C 16.039,3.326 16.009,2.964 16.053,2.61 16.222,1.25 15.596,0.801 14.285,0.834 11.777,0.896 9.267,0.813 6.759,0.863 5.526,0.888 4.985,0.428 4.995,-0.836 c 0.035,-4.607 0.04,-9.216 0.009,-13.824 -0.007,-1.176 0.429,-1.658 1.627,-1.636 2.611,0.05 5.223,-0.026 7.833,0.025 1.2,0.024 1.621,-0.439 1.602,-1.625 -0.062,-3.906 0.285,-3.286 -3.254,-3.301 -7.271,-0.033 -14.542,-0.014 -21.813,-0.008 -2.004,10e-4 -2.006,0.012 -2.013,2.064 -0.003,0.922 0.006,1.843 0.01,2.765 3.118,0.027 6.236,0.076 9.355,0.07 1.118,-0.002 1.723,0.345 1.711,1.581 C 0.017,-9.817 0.017,-4.908 0,0" /></g><g
           transform="translate(186.1821,102.4434)"
           id="g224"><path
             id="path226"
             style="fill:#f04d37;fill-opacity:1;fill-rule:evenodd;stroke:none"
             d="M 0,0 C 0,3.895 0.036,7.791 -0.019,11.685 -0.038,13 0.417,13.621 1.761,13.478 1.914,13.462 2.068,13.477 2.223,13.477 4.855,13.483 4.855,13.483 4.864,10.833 4.866,10.373 4.868,9.911 4.865,9.45 4.859,8.444 5.33,7.925 6.363,7.946 6.926,7.959 7.49,7.949 8.054,7.938 10.025,7.9 10.341,7.577 10.38,5.571 10.427,3.181 10.352,3.106 7.894,3.11 7.484,3.111 7.072,3.082 6.664,3.112 5.335,3.21 4.835,2.58 4.846,1.282 4.879,-2.867 4.886,-7.02 4.823,-11.17 4.812,-11.906 4.52,-13.205 4.176,-13.269 c -1.217,-0.225 -2.522,-0.098 -3.768,0.08 -0.203,0.028 -0.387,0.978 -0.391,1.505 C -0.016,-7.79 -0.001,-3.895 0,0" /></g><g
           transform="translate(208.3608,115.9463)"
           id="g228"><path
             id="path230"
             style="fill:#f04d38;fill-opacity:1;fill-rule:evenodd;stroke:none"
             d="m 0,0 c 1.127,0.002 2.256,-0.03 3.381,0.019 1.07,0.045 1.465,-0.451 1.462,-1.47 -0.014,-8.097 -0.019,-16.194 -0.01,-24.291 10e-4,-0.917 -0.393,-1.294 -1.296,-1.271 -1.179,0.033 -2.357,0.009 -3.536,0.01 -0.031,4.8 -0.062,9.603 -0.094,14.403 -0.014,2.054 -0.103,2.14 -2.196,2.145 -3.537,0.009 -3.51,0.007 -3.338,3.559 0.047,0.963 0.387,1.437 1.369,1.371 0.051,-0.004 0.102,0.001 0.153,0.002 3.98,0.174 3.978,0.174 4.023,4.148 C -0.077,-0.916 -0.028,-0.458 0,0" /></g><g
           transform="translate(197.2065,104.8838)"
           id="g232"><path
             id="path234"
             style="fill:#f04d38;fill-opacity:1;fill-rule:evenodd;stroke:none"
             d="M 0,0 C 1.229,0.003 2.472,0.114 3.678,-0.046 4.134,-0.105 4.519,-0.784 4.906,-1.207 4.984,-1.294 4.922,-1.505 4.928,-1.658 5.043,-4.885 4.154,-5.621 0.946,-4.816 0.564,-4.721 0.098,-4.093 0.057,-3.674 -0.065,-2.458 0.01,-1.221 0.008,0.007 0.008,0.007 0,0 0,0" /></g></g></g></g></svg>